# xmcd
#
# Track frame offsets:
#	150
#	13872
#	26477
#	41789
#	57871
#	71072
#	85898
#	100859
#	116103
#	129505
#	140008
#	153757
#
# Disc length: 2228 seconds
#
# Revision: 0
# Processed by: cddbd v1.5.2PL0 Copyright (c) Steve Scherf et al.
# Submitted via: EasyCDDAExtractor 16.0.6.1
#
DISCID=a308b20c
DTITLE=Γκολές Μπάμπης - Ο Μπάμπης Γκολές στο Ταξίμι-LP
DYEAR=1991
DGENRE=Ρεμπέτικη
TTITLE0=Γκολές Μπάμπης - Στα νησιά του Παραδείσου [ζεϊμ., Κ.Κοσμαδόπουλος-Χ.Βα
TTITLE0=σιλειάδης]
TTITLE1=Γκολές Μπάμπης - Είναι δυό χρόνια π' αγαπώ [χασάπικο, Κ. Σκαρβέλης-Κ. 
TTITLE1=Μακρής]
TTITLE2=Γκολές Μπάμπης-Κοτοπούλη Γιάννα - Κατάστρεψες τα νειάτα μου [ζεϊμ.,Γ.Π
TTITLE2=απαϊωάννου-Αλ.Αγγελόπουλος]
TTITLE3=Γκολές Μπάμπης - Έχω στην καρδιά έναν πόνο [ανατολίτικο, Μ. Γκολές]
TTITLE4=Γκολές Μπάμπης-Σακελλαρίου Γιώργος - Μεσάνυχτα βαθειά [ζεϊμπέκικο, Γ. 
TTITLE4=Λαύκας-Χρ. Κολοκοτρώνης]
TTITLE5=Γκολές Μπάμπης - Τι θέλεις και γεννιέσαι [ζεϊμπέκικο, Γ. Πετροπουλέας]
TTITLE6=Γκολές Μπάμπης - Με μπουζούκια και μπαγλαμάδες [ζεϊμπέκικο, Μ. Γκολές]
TTITLE7=Γκολές Μπάμπης - Ψαράς θα γίνω στη στεριά [ζεϊμπέκικο, Α. Καλδάρας-Μίν
TTITLE7=ως Μάτσας]
TTITLE8=Γκολές Μπάμπης - Άμα μ' αφήσεις [χασάπικο, Μ. Γκολές]
TTITLE9=Γκολές Μπάμπης - Μιά μελαχροινή κοπέλα [ζεϊμπέκικο, Β. Τσιτσάνης]
TTITLE10=Γκολές Μπάμπης - Ψιλοβρέχει [ζεϊμπέκικο, Γ. Μητσάκης]
TTITLE11=Γκολές Μπάμπης-Σακελλαρίου Γιώργος - Ζούγκλα στα βάθη της Ανατολής [Τ
TTITLE11=αμπού Μ. Γκολές]
EXTD=
EXTT0=
EXTT1=
EXTT2=
EXTT3=
EXTT4=
EXTT5=
EXTT6=
EXTT7=
EXTT8=
EXTT9=
EXTT10=
EXTT11=
PLAYORDER=
